<svg width="124" height="62" viewBox="0 0 124 62" fill="none" xmlns="http://www.w3.org/2000/svg">
<path d="M62.1173 9.80068C75.4421 -1.9933 92.5361 2.70245 99.4175 6.52457L102.819 8.16263L106.221 9.80068L121 58.2403L69.6243 55.1982C71.501 59.4103 57.4254 62.9204 53.672 56.3682L3 58.2403L3.95764 55.1982L18.2485 9.80068L21.6501 8.16263L25.0517 6.52457C41.9423 -3.02295 56.7999 4.73051 62.1173 9.80068Z" fill="#FFF2E0"/>
<path d="M62.1173 49.816C66.9655 42.8738 83.2306 32.2186 109.505 45.1358M62.1173 49.816C47.2911 33.9035 23.7223 40.0657 13.7913 45.1358M62.1173 49.816V9.80068M62.1173 49.816C62.7723 49.9521 63.7016 50.2383 64.6978 50.6966M62.1173 49.816C60.7153 49.816 59.4436 50.1636 58.3263 50.6966M109.505 45.1358L99.4175 6.52457M109.505 45.1358L112.437 48.6459M99.4175 6.52457C92.5361 2.70245 75.4421 -1.9933 62.1173 9.80068M99.4175 6.52457L102.819 8.16263M62.1173 9.80068C56.7999 4.73051 41.9423 -3.02295 25.0517 6.52457M25.0517 6.52457L13.7913 45.1358M25.0517 6.52457L21.6501 8.16263M13.7913 45.1358L11.2107 48.6459M53.4374 55.1982C53.8979 54.3855 54.798 53.2047 56.0636 52.1561M69.6243 55.1982C71.501 59.4103 57.4254 62.9204 53.672 56.3682L3 58.2403L3.95764 55.1982M69.6243 55.1982L121 58.2403L106.221 9.80068L102.819 8.16263M69.6243 55.1982C69.0703 53.9549 68.1587 52.9495 67.1345 52.1561M21.6501 8.16263L18.2485 9.80068L3.95764 55.1982M21.6501 8.16263L8.63022 52.1561M8.63022 52.1561C18.279 49.27 41.2739 45.2294 56.0636 52.1561M8.63022 52.1561L11.2107 48.6459M56.0636 52.1561C44.488 51.064 17.8609 50.1436 3.95764 55.1982M56.0636 52.1561C56.7223 51.6103 57.48 51.1003 58.3263 50.6966M102.819 8.16263L115.37 52.1561M115.37 52.1561C106.281 49.114 83.9101 44.855 67.1345 52.1561M115.37 52.1561L112.437 48.6459M67.1345 52.1561C77.5827 51.064 102.655 50.1436 119.358 55.1982M67.1345 52.1561C66.3516 51.5495 65.5029 51.0669 64.6978 50.6966M64.6978 50.6966C70.719 45.3329 88.6966 37.4136 112.437 48.6459M58.3263 50.6966C53.0214 45.4889 36.1714 37.788 11.2107 48.6459" stroke="#292424" stroke-width="3"/>
<path d="M66.8462 12.2025C71.3077 9.49698 83.1846 5.33825 95 10.3473M29 14.2896C34.8462 12.1252 48.5692 9.83713 56.6923 18" stroke="#292424" stroke-width="1.5" stroke-linecap="round"/>
<path d="M67 24C71.8062 21.0431 84.7349 16.2951 98 20.9586" stroke="#292424" stroke-width="1.5" stroke-linecap="round"/>
<path d="M25 28.3535C31.1235 25.3149 45.8963 21.5902 56 31" stroke="#292424" stroke-width="1.5" stroke-linecap="round"/>
<path d="M69 36C74.1489 32.2269 87.9574 26.9445 102 36" stroke="#292424" stroke-width="1.5" stroke-linecap="round"/>
</svg>
